<svg width="219" height="59" viewBox="0 0 219 59" fill="none" xmlns="http://www.w3.org/2000/svg">
<path d="M109.633 12.8099V46.1895C109.632 46.3154 109.581 46.4358 109.492 46.5249C109.403 46.6139 109.283 46.6647 109.157 46.6663H105.688C104.892 46.667 104.109 46.4676 103.409 46.0866C102.71 45.7056 102.118 45.1551 101.686 44.4855L85.9442 20.1343L86.4842 32.2972V46.1895C86.4826 46.3154 86.4318 46.4358 86.3429 46.5249C86.2539 46.6139 86.1336 46.6647 86.0078 46.6663H81.4212C81.2953 46.6647 81.1751 46.6139 81.0861 46.5249C80.9971 46.4358 80.9463 46.3154 80.9447 46.1895V12.8099C80.9463 12.6839 80.9971 12.5636 81.0861 12.4745C81.1751 12.3854 81.2953 12.3347 81.4212 12.333H84.8706C85.6659 12.3334 86.4484 12.5325 87.1473 12.9122C87.8461 13.2919 88.4393 13.8403 88.8728 14.5075L104.615 38.8205L104.126 26.7021V12.8099C104.126 12.6834 104.176 12.5621 104.265 12.4727C104.354 12.3832 104.476 12.333 104.602 12.333H109.189C109.309 12.3425 109.421 12.3968 109.503 12.485C109.586 12.5733 109.632 12.6891 109.633 12.8099V12.8099Z" fill="white"/>
<path d="M156.51 46.6668H151.656C151.58 46.6661 151.506 46.6472 151.439 46.6119C151.372 46.5765 151.314 46.5256 151.27 46.4634C151.227 46.4012 151.199 46.3295 151.189 46.2543C151.178 46.1791 151.186 46.1025 151.211 46.031L164.069 12.7912C164.124 12.6521 164.221 12.5333 164.346 12.4514C164.471 12.3694 164.619 12.3282 164.768 12.3335H170.848C170.992 12.3347 171.132 12.3789 171.251 12.4605C171.37 12.542 171.461 12.6572 171.515 12.7912L184.334 46.031C184.359 46.1025 184.367 46.1791 184.357 46.2543C184.347 46.3295 184.319 46.4012 184.275 46.4634C184.232 46.5256 184.174 46.5765 184.107 46.6119C184.04 46.6472 183.965 46.6661 183.89 46.6668H179.036C178.939 46.6672 178.844 46.6383 178.763 46.5839C178.683 46.5294 178.621 46.452 178.585 46.3616L168.224 19.0221C168.19 18.93 168.13 18.8505 168.049 18.7943C167.969 18.7381 167.874 18.7079 167.776 18.7079C167.678 18.7079 167.583 18.7381 167.503 18.7943C167.422 18.8505 167.362 18.93 167.328 19.0221L156.967 46.3616C156.931 46.453 156.868 46.5312 156.786 46.5857C156.704 46.6402 156.608 46.6685 156.51 46.6668V46.6668Z" fill="white"/>
<path d="M218.029 45.897L208.385 33.5688C213.83 32.5388 217.012 28.8639 217.012 23.2243C217.012 16.7455 212.8 12.333 205.349 12.333H191.9C191.712 12.333 191.531 12.408 191.397 12.5416C191.264 12.6751 191.189 12.8562 191.189 13.0451V13.0451C191.189 13.6463 191.307 14.2415 191.537 14.7969C191.767 15.3523 192.104 15.857 192.528 16.2821C192.953 16.7072 193.457 17.0444 194.012 17.2744C194.567 17.5045 195.162 17.6229 195.763 17.6229H204.79C209.294 17.6229 211.454 19.9308 211.454 23.2625C211.454 26.5941 209.345 28.9847 204.79 28.9847H191.9C191.711 28.9864 191.53 29.0628 191.397 29.1973C191.263 29.3319 191.189 29.5137 191.189 29.7031V46.234C191.189 46.3605 191.239 46.4818 191.328 46.5712C191.418 46.6606 191.539 46.7108 191.665 46.7108H196.252C196.378 46.7092 196.498 46.6584 196.587 46.5694C196.676 46.4803 196.727 46.36 196.728 46.234V33.8676H202.02L210.386 44.7971C210.835 45.3819 211.412 45.855 212.073 46.1793C212.734 46.5036 213.462 46.6703 214.198 46.6663H217.679C217.766 46.6615 217.85 46.633 217.922 46.5838C217.994 46.5347 218.051 46.4668 218.087 46.3875C218.123 46.3083 218.136 46.2207 218.126 46.1342C218.116 46.0477 218.082 45.9657 218.029 45.897Z" fill="white"/>
<path d="M142.007 12.333H120.725C120.557 12.333 120.395 12.4 120.276 12.5192C120.157 12.6385 120.09 12.8002 120.09 12.9688C120.09 14.2048 120.58 15.3902 121.454 16.2642C122.327 17.1382 123.511 17.6292 124.746 17.6292H142.007C142.069 17.6301 142.132 17.6183 142.19 17.5947C142.248 17.571 142.301 17.5359 142.345 17.4915C142.39 17.447 142.425 17.3941 142.448 17.3359C142.472 17.2776 142.484 17.2152 142.483 17.1524V12.8099C142.483 12.6834 142.433 12.5621 142.343 12.4727C142.254 12.3832 142.133 12.333 142.007 12.333ZM142.007 41.3701H126.125C125.999 41.3685 125.879 41.3177 125.79 41.2286C125.701 41.1395 125.65 41.0192 125.648 40.8933V32.2845C125.648 32.158 125.699 32.0367 125.788 31.9473C125.877 31.8579 125.999 31.8076 126.125 31.8076H140.806C140.932 31.8076 141.053 31.7574 141.143 31.668C141.232 31.5785 141.282 31.4573 141.282 31.3308V26.9565C141.282 26.83 141.232 26.7087 141.143 26.6193C141.053 26.5299 140.932 26.4796 140.806 26.4796H120.801C120.612 26.4813 120.431 26.5577 120.298 26.6923C120.165 26.8268 120.09 27.0086 120.09 27.1981V45.9225C120.089 46.0165 120.107 46.1098 120.142 46.1969C120.178 46.284 120.23 46.3633 120.296 46.4301C120.362 46.4969 120.441 46.5499 120.528 46.5861C120.614 46.6223 120.707 46.6409 120.801 46.6409H142.007C142.133 46.6409 142.254 46.5907 142.343 46.5012C142.433 46.4118 142.483 46.2905 142.483 46.1641V41.8215C142.478 41.699 142.425 41.5832 142.336 41.4989C142.247 41.4146 142.129 41.3683 142.007 41.3701Z" fill="white"/>
<path d="M46.7611 3.79441L34.8054 21.5524C34.6117 21.8087 34.5221 22.1289 34.5547 22.4486C34.5873 22.7684 34.7396 23.0639 34.9811 23.2757C35.2226 23.4876 35.5352 23.6001 35.8562 23.5906C36.1772 23.5811 36.4827 23.4503 36.7112 23.2245L48.4763 13.0517C48.5441 12.9894 48.6287 12.9485 48.7196 12.9339C48.8105 12.9193 48.9036 12.9317 48.9875 12.9697C49.0714 13.0076 49.1423 13.0693 49.1915 13.1472C49.2406 13.225 49.2659 13.3156 49.264 13.4077V45.3823C49.2631 45.4793 49.2325 45.5738 49.1765 45.653C49.1205 45.7323 49.0416 45.7925 48.9504 45.8257C48.8593 45.8589 48.7602 45.8634 48.6664 45.8387C48.5726 45.814 48.4885 45.7612 48.4255 45.6874L12.8506 3.08867C12.2827 2.40478 11.5722 1.85351 10.7689 1.47349C9.96559 1.09347 9.08897 0.893907 8.20047 0.888791H6.9617C5.34595 0.888791 3.79638 1.53119 2.65387 2.67466C1.51136 3.81814 0.869507 5.36902 0.869507 6.98614V52.0137C0.869507 53.6308 1.51136 55.1817 2.65387 56.3251C3.79638 57.4686 5.34595 58.111 6.9617 58.111V58.111C8.00279 58.1109 9.02647 57.8437 9.93507 57.3351C10.8437 56.8264 11.6069 56.0932 12.1518 55.2054L24.1075 37.4474C24.3013 37.1911 24.3908 36.8709 24.3582 36.5512C24.3256 36.2314 24.1733 35.9359 23.9318 35.7241C23.6904 35.5122 23.3777 35.3997 23.0567 35.4092C22.7357 35.4187 22.4303 35.5495 22.2017 35.7753L10.4366 45.9481C10.3688 46.0104 10.2842 46.0513 10.1933 46.0659C10.1024 46.0805 10.0093 46.0681 9.9254 46.0301C9.84152 45.9922 9.7706 45.9305 9.72145 45.8526C9.67229 45.7748 9.64706 45.6842 9.64888 45.5921V13.6493C9.64983 13.5523 9.68037 13.4578 9.73641 13.3786C9.79245 13.2993 9.87132 13.2391 9.96248 13.2059C10.0536 13.1727 10.1527 13.1682 10.2466 13.1929C10.3404 13.2176 10.4244 13.2704 10.4874 13.3442L46.0623 55.9429C46.6346 56.6207 47.3477 57.1652 48.152 57.5386C48.9562 57.912 49.8322 58.1051 50.7188 58.1047H51.9893C52.7894 58.1047 53.5816 57.9469 54.3207 57.6405C55.0599 57.3341 55.7315 56.885 56.2972 56.3188C56.8629 55.7526 57.3116 55.0804 57.6178 54.3407C57.9239 53.6009 58.0815 52.808 58.0815 52.0073V6.98614C58.0815 6.1822 57.9227 5.3862 57.6142 4.64394C57.3056 3.90168 56.8535 3.22781 56.2837 2.66112C55.714 2.09443 55.0379 1.6461 54.2943 1.34193C53.5508 1.03776 52.7545 0.883761 51.9512 0.888791V0.888791C50.9101 0.888916 49.8865 1.15606 48.9779 1.66472C48.0693 2.17339 47.3061 2.90661 46.7611 3.79441Z" fill="white"/>
</svg>
