<svg width="154" height="50" viewBox="0 0 154 50" fill="none" xmlns="http://www.w3.org/2000/svg">
<path d="M25.9172 49.2718C29.8072 49.2718 34.6697 49.7087 34.6697 45.2913C34.6697 37.9126 23.6804 38.0097 23.6804 33.6893C23.6804 28.4951 34.3293 30.5825 34.3293 25C34.3293 22.1359 26.3548 19.6602 23.2428 19.6602C19.5473 19.6602 16.5812 23.0583 16.5812 26.699C16.5812 35.0485 24.7988 35.8252 24.7988 42.2816C24.7988 45.3398 21.4923 46.8447 18.4289 46.8447C10.114 46.8447 5.88364 36.6505 5.88364 31.3592C5.88364 20.0971 19.9849 12.1845 19.9849 5.04854C19.9849 3.1068 18.8665 0.72816 14.9279 0.72816H0C1.31288 2.03884 1.70188 3.68932 1.70188 6.45631V43.5437C1.70188 46.3107 1.31288 47.9612 0 49.2718H25.9172Z" fill="white"/>
<path d="M36.391 25C36.391 40 44.0251 50 55.5493 50C66.9762 50 74.6589 40 74.6589 25C74.6589 10 66.9762 0 55.5493 0C44.0251 0 36.391 10 36.391 25ZM51.6106 3.30097C61.8705 3.30097 69.3588 46.699 58.5154 46.699C49.8601 46.699 42.5177 3.30097 51.6106 3.30097Z" fill="white"/>
<path d="M77.086 25C77.086 41.7476 85.8872 50 96.7792 50C105.337 50 110.783 43.3981 112.436 37.5728V25.2427C112.436 20.9709 108.838 19.3689 106.115 19.3689C101.496 19.3689 99.9884 21.5534 96.7306 21.5534C94.3966 21.5534 93.2782 20.0485 92.5002 20.0485C91.1873 20.0485 90.2634 21.7476 90.2634 23.2524C90.2634 27.6214 92.9864 31.2136 98.5297 31.2136C104.656 31.2136 105.678 24.5631 107.817 24.5631C109.227 24.5631 109.568 26.2136 109.568 29.0291C109.568 33.0583 107.477 38.6408 100.621 38.6408C88.9992 38.6408 82.6779 23.4951 82.6779 13.4951C82.6779 11.699 83.4073 7.62136 86.6652 7.62136C92.9864 7.62136 96.1471 13.4466 104.802 13.4466C108.303 13.4466 110.589 9.32039 111.61 7.03884C113.02 3.8835 113.652 0 111.756 0C110.248 0 109.276 1.94175 105.921 1.94175C101.496 1.94175 98.5297 0 94.7369 0C82.7752 0 77.086 12.9612 77.086 25Z" fill="white"/>
<path d="M115.122 25C115.122 40 122.756 50 134.28 50C145.707 50 153.39 40 153.39 25C153.39 10 145.707 0 134.28 0C122.756 0 115.122 10 115.122 25ZM130.342 3.30097C140.601 3.30097 148.09 46.699 137.246 46.699C128.591 46.699 121.249 3.30097 130.342 3.30097Z" fill="white"/>
</svg>
